HIERARCHY
ROOT Hips
{
    OFFSET 0.000000 0.000000 0.000000
    CHANNELS 6 Xposition Yposition Zposition Zrotation Xrotation Yrotation
    JOINT Spine
    {
        OFFSET -0.000000 6.993131 0.000000
        CHANNELS 3 Zrotation Xrotation Yrotation
        JOINT Spine1
        {
            OFFSET -0.000000 20.649729 0.000000
            CHANNELS 3 Zrotation Xrotation Yrotation
            JOINT Neck
            {
                OFFSET -0.000000 20.564924 1.869539
                CHANNELS 3 Zrotation Xrotation Yrotation
                JOINT Head
                {
                    OFFSET -0.000000 11.939490 -1.705642
                    CHANNELS 3 Zrotation Xrotation Yrotation
                    End Site
                    {
                        OFFSET -0.000000 21.320518 0.000000
                    }
                }
            }
            JOINT LeftShoulder
            {
                OFFSET 3.446977 19.850397 -0.038759
                CHANNELS 3 Zrotation Xrotation Yrotation
                JOINT LeftArm
                {
                    OFFSET 7.083611 0.000000 0.000000
                    CHANNELS 3 Zrotation Xrotation Yrotation
                    JOINT LeftForeArm
                    {
                        OFFSET 32.044487 0.000000 0.000000
                        CHANNELS 3 Zrotation Xrotation Yrotation
                        JOINT LeftHand
                        {
                            OFFSET 22.068741 0.000000 0.000000
                            CHANNELS 3 Zrotation Xrotation Yrotation
                            End Site
                            {
                                OFFSET 12.792312 0.000000 0.000000
                            }
                        }
                    }
                }
            }
            JOINT RightShoulder
            {
                OFFSET -3.365844 19.850397 -0.038759
                CHANNELS 3 Zrotation Xrotation Yrotation
                JOINT RightArm
                {
                    OFFSET -7.083611 0.000000 0.000000
                    CHANNELS 3 Zrotation Xrotation Yrotation
                    JOINT RightForeArm
                    {
                        OFFSET -32.044487 0.000000 0.000000
                        CHANNELS 3 Zrotation Xrotation Yrotation
                        JOINT RightHand
                        {
                            OFFSET -22.068741 0.000000 0.000000
                            CHANNELS 3 Zrotation Xrotation Yrotation
                            End Site
                            {
                                OFFSET -12.792312 0.000000 0.000000
                            }
                        }
                    }
                }
            }
        }
    }
    JOINT LeftUpLeg
    {
        OFFSET 8.528208 0.000000 0.000000
        CHANNELS 3 Zrotation Xrotation Yrotation
        JOINT LeftLeg
        {
            OFFSET -0.000000 -31.874865 0.000000
            CHANNELS 3 Zrotation Xrotation Yrotation
            JOINT LeftFoot
            {
                OFFSET -0.000000 -38.221939 0.000000
                CHANNELS 3 Zrotation Xrotation Yrotation
                JOINT LeftToeBase
                {
                    OFFSET -0.000000 -5.543335 12.792312
                    CHANNELS 3 Zrotation Xrotation Yrotation
                    End Site
                    {
                        OFFSET -0.000000 0.000000 3.411283
                    }
                }
            }
        }
    }
    JOINT RightUpLeg
    {
        OFFSET -8.528208 0.000000 0.000000
        CHANNELS 3 Zrotation Xrotation Yrotation
        JOINT RightLeg
        {
            OFFSET -0.000000 -31.874865 0.000000
            CHANNELS 3 Zrotation Xrotation Yrotation
            JOINT RightFoot
            {
                OFFSET -0.000000 -38.221939 0.000000
                CHANNELS 3 Zrotation Xrotation Yrotation
                JOINT RightToeBase
                {
                    OFFSET -0.000000 -5.543335 12.792312
                    CHANNELS 3 Zrotation Xrotation Yrotation
                    End Site
                    {
                        OFFSET -0.000000 0.000000 3.411283
                    }
                }
            }
        }
    }
}
MOTION
Frames:    4
Frame Time:    0.008333
-3.991993    75.816635    28.855206    3.290031    -0.300169    92.859581    0.810898    0.116873    -4.395086    -8.146469    5.449849    -4.005872    13.063015    10.914728    13.237785    -7.968753    -1.232506    11.922410    8.755177    8.304519    -1.756727    -54.204018    55.118065    -20.445103    6.364129    -13.918671    -31.183163    1.671139    -12.232329    -3.173694    15.908089    11.177889    -5.623951    38.309193    55.058670    18.087509    -5.832493    -16.365103    35.480713    7.681902    -14.256953    4.737349    -3.671747    -2.915054    1.445079    1.658590    12.933888    -0.871732    -2.195218    -10.991008    -1.912692    0.000000    0.000000    0.000000    -11.841865    -34.228508    -3.168476    25.690559    62.495941    -26.501110    2.506155    4.695246    2.115792    0.000000    0.000000    0.000000    
-3.919312    75.802544    28.894489    3.209482    -0.243149    93.023384    0.731061    0.075309    -4.357185    -8.107155    5.266420    -3.983231    13.166698    10.962502    13.175385    -8.043091    -1.118373    11.854549    8.678435    8.371105    -1.783301    -54.298512    55.298458    -20.316410    6.273481    -13.795460    -31.126352    1.765143    -12.137895    -3.104895    15.937066    11.194897    -5.592584    38.528584    55.151138    17.879942    -6.005798    -16.070551    35.184650    7.638187    -13.942892    4.443954    -3.702134    -3.034107    1.478732    1.699479    13.076182    -0.941766    -2.244342    -11.050136    -2.050802    0.000000    0.000000    0.000000    -11.603837    -33.179985    -3.205915    24.730476    61.497478    -25.571360    2.655407    4.875968    1.906194    0.000000    0.000000    0.000000    
-3.919294    75.769135    28.864332    2.938150    0.085943    92.859222    0.598365    0.009269    -4.226553    -8.328599    4.896115    -3.869803    13.137048    11.060794    13.143025    -7.964594    -1.133770    11.844964    8.580016    8.431646    -1.668928    -54.465263    55.475632    -20.048054    6.313044    -13.678404    -31.098789    1.458070    -12.002664    -3.102736    15.989079    11.261578    -5.501075    38.590408    55.270012    17.847937    -6.125654    -15.780188    34.849747    7.843251    -13.628744    4.373210    -4.137603    -3.371725    1.508120    1.811802    13.216992    -0.667099    -2.349086    -10.925913    -2.205192    0.000000    0.000000    0.000000    -11.637082    -32.554878    -3.148841    23.821510    60.644768    -24.636997    2.728523    5.304476    1.795484    0.000000    0.000000    0.000000    
-3.862825    75.749939    28.876423    2.819480    0.257782    92.908241    0.533683    -0.109646    -4.205816    -8.376676    4.849050    -3.851031    12.932646    11.021540    13.134237    -7.795676    -1.163704    11.864427    8.456676    8.413011    -1.543002    -54.666103    55.657093    -19.750870    6.288196    -13.612926    -31.144346    1.371885    -11.938662    -3.107577    15.897348    11.319330    -5.376599    38.668915    55.366657    17.912342    -6.225938    -15.481839    34.568855    7.781586    -13.344127    3.939142    -4.345953    -3.569364    1.462913    1.883371    13.419401    -0.462061    -2.446567    -10.871887    -2.426451    0.000000    0.000000    0.000000    -11.507780    -31.515339    -3.165449    22.887724    59.502125    -23.783670    2.804502    5.636993    1.606770    0.000000    0.000000    0.000000    
